<svg xmlns="http://www.w3.org/2000/svg" width="1000" height="650" viewBox="0 0 1000 650" role="img" aria-labelledby="title desc"><title id="title">Electrode drive voltage: dry load and saline measurements</title><desc id="desc">Four voltage measurements in each condition from the team spreadsheet. Saline results: 1.98, 2.96, 3.98, 4.96 V for expected values 2, 3, 4, 5 V. Dry results: 1.68, 2.68, 3.64, 4.62 V. No repeated trials or error bars supplied.</desc><rect width="1000" height="650" fill="#fff"/><g font-family="Arial, sans-serif" fill="#171717"><text x="65" y="48" font-size="27" font-weight="700">Electrode drive voltage</text><text x="65" y="79" font-size="18" fill="#555">Team measurements · four points per condition</text><path d="M120 490.0H840" stroke="#dedede"/><text x="105" y="496.0" text-anchor="end" font-size="18">1.5</text><path d="M120 437.5H840" stroke="#dedede"/><text x="105" y="443.5" text-anchor="end" font-size="18">2</text><path d="M120 385.0H840" stroke="#dedede"/><text x="105" y="391.0" text-anchor="end" font-size="18">2.5</text><path d="M120 332.5H840" stroke="#dedede"/><text x="105" y="338.5" text-anchor="end" font-size="18">3</text><path d="M120 280.0H840" stroke="#dedede"/><text x="105" y="286.0" text-anchor="end" font-size="18">3.5</text><path d="M120 227.5H840" stroke="#dedede"/><text x="105" y="233.5" text-anchor="end" font-size="18">4</text><path d="M120 175.0H840" stroke="#dedede"/><text x="105" y="181.0" text-anchor="end" font-size="18">4.5</text><path d="M120 122.5H840" stroke="#dedede"/><text x="105" y="128.5" text-anchor="end" font-size="18">5</text><text x="120" y="525" text-anchor="middle" font-size="19">2</text><text x="360" y="525" text-anchor="middle" font-size="19">3</text><text x="600" y="525" text-anchor="middle" font-size="19">4</text><text x="840" y="525" text-anchor="middle" font-size="19">5</text><path d="M120 110V490H840" stroke="#555" fill="none"/><text x="480" y="567" text-anchor="middle" font-size="20">Expected output (V)</text><text x="35" y="305" text-anchor="middle" font-size="20" transform="rotate(-90 35 305)">Measured output (V)</text><path d="M120 437.5L840 122.5" stroke="#999" stroke-width="2" stroke-dasharray="8 7" fill="none"/><polyline points="120,471.1 360,366.09999999999997 600,265.29999999999995 840,162.39999999999998" stroke="#202020" stroke-width="3" fill="none"/><rect x="115" y="466.1" width="10" height="10" fill="#202020"/><rect x="355" y="361.09999999999997" width="10" height="10" fill="#202020"/><rect x="595" y="260.29999999999995" width="10" height="10" fill="#202020"/><rect x="835" y="157.39999999999998" width="10" height="10" fill="#202020"/><polyline points="120,439.6 360,336.70000000000005 600,229.60000000000002 840,126.69999999999999" stroke="#c13225" stroke-width="3" fill="none"/><circle cx="120" cy="439.6" r="5" fill="#c13225"/><circle cx="360" cy="336.70000000000005" r="5" fill="#c13225"/><circle cx="600" cy="229.60000000000002" r="5" fill="#c13225"/><circle cx="840" cy="126.69999999999999" r="5" fill="#c13225"/><path d="M120 610h30" stroke="#202020" stroke-width="3"/><text x="162" y="616" font-size="17">Dry 100 Ω load</text><path d="M370 610h30" stroke="#c13225" stroke-width="3"/><text x="412" y="616" font-size="17">Saline well</text><path d="M600 610h30" stroke="#999" stroke-width="3" stroke-dasharray="6 4"/><text x="642" y="616" font-size="17">Expected = measured</text></g></svg>